<?xml version="1.0" encoding="UTF-8"?>
<!DOCTYPE svg PUBLIC "-//W3C//DTD SVG 1.1//EN" "http://www.w3.org/Graphics/SVG/1.1/DTD/svg11.dtd">
<svg xmlns="http://www.w3.org/2000/svg" version="1.1" width="3840px" height="2160px" style="shape-rendering:geometricPrecision; text-rendering:geometricPrecision; image-rendering:optimizeQuality; fill-rule:evenodd; clip-rule:evenodd" xmlns:xlink="http://www.w3.org/1999/xlink">
<g><path style="opacity:1" fill="#fe6500" d="M 3119.5,770.5 C 3102.61,782.198 3085.28,793.364 3067.5,804C 2890.85,906.455 2706.51,992.788 2514.5,1063C 2451.13,1085.68 2386.46,1103.68 2320.5,1117C 2277.53,1125.86 2234.2,1128.53 2190.5,1125C 2163.39,1122.6 2139.05,1113.27 2117.5,1097C 2100.94,1081.04 2091.44,1061.54 2089,1038.5C 2086.54,1010.59 2091.21,983.922 2103,958.5C 2115.98,931.847 2130.98,906.514 2148,882.5C 2158.62,867.55 2169.62,852.884 2181,838.5C 2255.17,753.004 2327.84,666.337 2399,578.5C 2425.14,545.562 2449.8,511.562 2473,476.5C 2487.85,454.809 2499.51,431.475 2508,406.5C 2510.96,396.996 2513.13,387.329 2514.5,377.5C 2518.71,359.013 2517.71,339.68 2511.5,319.5C 2511.5,318.833 2511.17,318.5 2510.5,318.5C 2510.17,317.167 2509.83,315.833 2509.5,314.5C 2509.5,313.833 2509.17,313.5 2508.5,313.5C 2508.5,313.167 2508.5,312.833 2508.5,312.5C 2508.5,311.833 2508.17,311.5 2507.5,311.5C 2507.5,311.167 2507.5,310.833 2507.5,310.5C 2507.5,309.833 2507.17,309.5 2506.5,309.5C 2506.5,309.167 2506.5,308.833 2506.5,308.5C 2506.5,307.833 2506.17,307.5 2505.5,307.5C 2505.5,307.167 2505.5,306.833 2505.5,306.5C 2505.5,305.833 2505.17,305.5 2504.5,305.5C 2504.5,305.167 2504.5,304.833 2504.5,304.5C 2504.5,303.833 2504.17,303.5 2503.5,303.5C 2503.67,302.508 2503.34,301.842 2502.5,301.5C 2502.5,300.833 2502.17,300.5 2501.5,300.5C 2501.5,300.167 2501.5,299.833 2501.5,299.5C 2501.5,298.833 2501.17,298.5 2500.5,298.5C 2500.5,297.833 2500.17,297.5 2499.5,297.5C 2499.67,296.508 2499.34,295.842 2498.5,295.5C 2498.5,294.833 2498.17,294.5 2497.5,294.5C 2497.5,293.833 2497.17,293.5 2496.5,293.5C 2496.67,292.508 2496.34,291.842 2495.5,291.5C 2495.5,290.833 2495.17,290.5 2494.5,290.5C 2494.5,289.833 2494.17,289.5 2493.5,289.5C 2493.5,288.833 2493.17,288.5 2492.5,288.5C 2492.5,287.833 2492.17,287.5 2491.5,287.5C 2491.5,286.833 2491.17,286.5 2490.5,286.5C 2490.5,285.833 2490.17,285.5 2489.5,285.5C 2489.17,283.167 2487.83,281.833 2485.5,281.5C 2485.5,280.833 2485.17,280.5 2484.5,280.5C 2484.5,279.833 2484.17,279.5 2483.5,279.5C 2483.5,278.833 2483.17,278.5 2482.5,278.5C 2482.5,277.833 2482.17,277.5 2481.5,277.5C 2481.5,276.833 2481.17,276.5 2480.5,276.5C 2479.74,274.738 2478.4,273.738 2476.5,273.5C 2476.5,272.833 2476.17,272.5 2475.5,272.5C 2475.03,271.094 2474.03,270.427 2472.5,270.5C 2471.74,268.738 2470.4,267.738 2468.5,267.5C 2468.03,266.094 2467.03,265.427 2465.5,265.5C 2465.03,264.094 2464.03,263.427 2462.5,263.5C 2461.34,261.75 2459.67,260.75 2457.5,260.5C 2455.66,258.412 2453.33,257.079 2450.5,256.5C 2443,251.583 2435,247.416 2426.5,244C 2413.66,238.608 2400.66,233.608 2387.5,229C 2336.47,213.434 2285.64,197.267 2235,180.5C 2213.32,191.925 2191.82,203.759 2170.5,216C 2169.5,216.833 2168.5,217.667 2167.5,218.5C 2167.86,219.522 2168.52,220.189 2169.5,220.5C 2181.47,232.3 2193.63,243.966 2206,255.5C 2206.53,256.816 2206.03,257.483 2204.5,257.5C 2143.96,268.938 2083.96,282.271 2024.5,297.5C 2022.9,297.232 2021.57,297.566 2020.5,298.5C 2018.9,298.232 2017.57,298.566 2016.5,299.5C 2014.9,299.232 2013.57,299.566 2012.5,300.5C 2010.9,300.232 2009.57,300.566 2008.5,301.5C 2006.9,301.232 2005.57,301.566 2004.5,302.5C 2002.9,302.232 2001.57,302.566 2000.5,303.5C 1998.9,303.232 1997.57,303.566 1996.5,304.5C 1994.9,304.232 1993.57,304.566 1992.5,305.5C 1991.21,305.263 1990.21,305.596 1989.5,306.5C 1989.17,306.5 1988.83,306.5 1988.5,306.5C 1987.21,306.263 1986.21,306.596 1985.5,307.5C 1985.17,307.5 1984.83,307.5 1984.5,307.5C 1983.21,307.263 1982.21,307.596 1981.5,308.5C 1981.17,308.5 1980.83,308.5 1980.5,308.5C 1979.21,308.263 1978.21,308.596 1977.5,309.5C 1976.21,309.263 1975.21,309.596 1974.5,310.5C 1974.17,310.5 1973.83,310.5 1973.5,310.5C 1972.21,310.263 1971.21,310.596 1970.5,311.5C 1970.17,311.5 1969.83,311.5 1969.5,311.5C 1968.21,311.263 1967.21,311.596 1966.5,312.5C 1966.17,312.5 1965.83,312.5 1965.5,312.5C 1964.51,312.328 1963.84,312.662 1963.5,313.5C 1962.83,313.5 1962.17,313.5 1961.5,313.5C 1960.51,313.328 1959.84,313.662 1959.5,314.5C 1959.17,314.5 1958.83,314.5 1958.5,314.5C 1957.21,314.263 1956.21,314.596 1955.5,315.5C 1955.17,315.5 1954.83,315.5 1954.5,315.5C 1953.51,315.328 1952.84,315.662 1952.5,316.5C 1951.83,316.5 1951.17,316.5 1950.5,316.5C 1949.51,316.328 1948.84,316.662 1948.5,317.5C 1948.17,317.5 1947.83,317.5 1947.5,317.5C 1946.51,317.328 1945.84,317.662 1945.5,318.5C 1944.83,318.5 1944.17,318.5 1943.5,318.5C 1942.51,318.328 1941.84,318.662 1941.5,319.5C 1941.17,319.5 1940.83,319.5 1940.5,319.5C 1939.51,319.328 1938.84,319.662 1938.5,320.5C 1937.83,320.5 1937.17,320.5 1936.5,320.5C 1935.51,320.328 1934.84,320.662 1934.5,321.5C 1933.83,321.5 1933.17,321.5 1932.5,321.5C 1931.83,321.5 1931.5,321.833 1931.5,322.5C 1930.83,322.5 1930.17,322.5 1929.5,322.5C 1928.51,322.328 1927.84,322.662 1927.5,323.5C 1926.83,323.5 1926.17,323.5 1925.5,323.5C 1924.83,323.5 1924.5,323.833 1924.5,324.5C 1923.83,324.5 1923.17,324.5 1922.5,324.5C 1921.83,324.5 1921.5,324.833 1921.5,325.5C 1920.5,325.5 1919.5,325.5 1918.5,325.5C 1917.83,325.5 1917.5,325.833 1917.5,326.5C 1916.83,326.5 1916.17,326.5 1915.5,326.5C 1914.83,326.5 1914.5,326.833 1914.5,327.5C 1912.5,327.833 1910.5,328.167 1908.5,328.5C 1907.83,328.5 1907.5,328.833 1907.5,329.5C 1906.83,329.5 1906.17,329.5 1905.5,329.5C 1904.83,329.5 1904.5,329.833 1904.5,330.5C 1902.5,330.833 1900.5,331.167 1898.5,331.5C 1897.83,331.5 1897.5,331.833 1897.5,332.5C 1787.67,366.278 1678.83,402.945 1571,442.5C 1582,471.833 1593,501.167 1604,530.5C 1571.81,563.028 1539.31,595.195 1506.5,627C 1489.44,621.971 1473.44,614.471 1458.5,604.5C 1457.83,659.167 1457.17,713.833 1456.5,768.5C 1411.13,789.164 1369.46,815.331 1331.5,847C 1310.52,865.167 1294.02,886.667 1282,911.5C 1266.89,952.49 1275.72,987.323 1308.5,1016C 1312.56,1019.03 1316.89,1021.53 1321.5,1023.5C 1362.6,1046.91 1406.93,1059.75 1454.5,1062C 1507.78,1065.5 1561.44,1064.17 1615.5,1058C 1716.58,1046.08 1816.25,1026.92 1914.5,1000.5C 1839.06,1041.93 1760.4,1076.1 1678.5,1103C 1583.01,1132.36 1485.35,1149.19 1385.5,1153.5C 1339.81,1152.62 1295.14,1145.45 1251.5,1132C 1140.58,1093.04 1094.08,1015.2 1112,898.5C 1124,843.808 1145.33,793.141 1176,746.5C 1286.03,568.806 1431.19,427.306 1611.5,322C 1758.84,236.544 1916.18,176.877 2083.5,143C 2178.8,125.09 2274.47,122.757 2370.5,136C 2417.09,142.974 2461.42,156.974 2503.5,178C 2596.3,229.111 2633.8,307.278 2616,412.5C 2608.01,446.48 2595.67,478.813 2579,509.5C 2555.42,552.051 2529.09,592.718 2500,631.5C 2442.96,704.896 2384.96,777.563 2326,849.5C 2309.23,870.94 2293.23,892.94 2278,915.5C 2268.88,929.403 2262.22,944.403 2258,960.5C 2254.58,978.847 2261.75,990.681 2279.5,996C 2289.06,998.036 2298.72,999.202 2308.5,999.5C 2419.54,991.605 2528.87,973.438 2636.5,945C 2755.15,913.229 2871.15,873.896 2984.5,827C 3029.58,808.255 3074.58,789.422 3119.5,770.5 Z M 2450.5,256.5 C 2432.22,247.795 2413.56,239.962 2394.5,233C 2341.39,216.298 2288.23,199.798 2235,183.5C 2212.88,195.474 2191.04,207.807 2169.5,220.5C 2168.52,220.189 2167.86,219.522 2167.5,218.5C 2168.5,217.667 2169.5,216.833 2170.5,216C 2191.82,203.759 2213.32,191.925 2235,180.5C 2285.64,197.267 2336.47,213.434 2387.5,229C 2400.66,233.608 2413.66,238.608 2426.5,244C 2435,247.416 2443,251.583 2450.5,256.5 Z M 2450.5,256.5 C 2453.33,257.079 2455.66,258.412 2457.5,260.5C 2454.67,259.921 2452.34,258.588 2450.5,256.5 Z M 2204.5,257.5 C 2204.95,258.458 2205.62,259.292 2206.5,260C 2145.64,271.539 2084.97,284.039 2024.5,297.5C 2083.96,282.271 2143.96,268.938 2204.5,257.5 Z M 2457.5,260.5 C 2459.67,260.75 2461.34,261.75 2462.5,263.5C 2460.33,263.25 2458.66,262.25 2457.5,260.5 Z M 2462.5,263.5 C 2464.03,263.427 2465.03,264.094 2465.5,265.5C 2463.97,265.573 2462.97,264.906 2462.5,263.5 Z M 2465.5,265.5 C 2467.03,265.427 2468.03,266.094 2468.5,267.5C 2466.97,267.573 2465.97,266.906 2465.5,265.5 Z M 2468.5,267.5 C 2470.4,267.738 2471.74,268.738 2472.5,270.5C 2470.6,270.262 2469.26,269.262 2468.5,267.5 Z M 2472.5,270.5 C 2474.03,270.427 2475.03,271.094 2475.5,272.5C 2473.97,272.573 2472.97,271.906 2472.5,270.5 Z M 2476.5,273.5 C 2478.4,273.738 2479.74,274.738 2480.5,276.5C 2478.6,276.262 2477.26,275.262 2476.5,273.5 Z M 2485.5,281.5 C 2487.83,281.833 2489.17,283.167 2489.5,285.5C 2487.83,284.5 2486.5,283.167 2485.5,281.5 Z"/></g>
<g><path style="opacity:1" fill="#000000" d="M 2450.5,256.5 C 2452.34,258.588 2454.67,259.921 2457.5,260.5C 2458.66,262.25 2460.33,263.25 2462.5,263.5C 2462.97,264.906 2463.97,265.573 2465.5,265.5C 2465.97,266.906 2466.97,267.573 2468.5,267.5C 2469.26,269.262 2470.6,270.262 2472.5,270.5C 2472.97,271.906 2473.97,272.573 2475.5,272.5C 2476.17,272.5 2476.5,272.833 2476.5,273.5C 2477.26,275.262 2478.6,276.262 2480.5,276.5C 2481.17,276.5 2481.5,276.833 2481.5,277.5C 2482.17,277.5 2482.5,277.833 2482.5,278.5C 2483.17,278.5 2483.5,278.833 2483.5,279.5C 2484.17,279.5 2484.5,279.833 2484.5,280.5C 2485.17,280.5 2485.5,280.833 2485.5,281.5C 2486.5,283.167 2487.83,284.5 2489.5,285.5C 2490.17,285.5 2490.5,285.833 2490.5,286.5C 2491.17,286.5 2491.5,286.833 2491.5,287.5C 2492.17,287.5 2492.5,287.833 2492.5,288.5C 2493.17,288.5 2493.5,288.833 2493.5,289.5C 2494.17,289.5 2494.5,289.833 2494.5,290.5C 2495.17,290.5 2495.5,290.833 2495.5,291.5C 2495.33,292.492 2495.66,293.158 2496.5,293.5C 2497.17,293.5 2497.5,293.833 2497.5,294.5C 2498.17,294.5 2498.5,294.833 2498.5,295.5C 2498.33,296.492 2498.66,297.158 2499.5,297.5C 2500.17,297.5 2500.5,297.833 2500.5,298.5C 2501.17,298.5 2501.5,298.833 2501.5,299.5C 2501.5,299.833 2501.5,300.167 2501.5,300.5C 2502.17,300.5 2502.5,300.833 2502.5,301.5C 2502.33,302.492 2502.66,303.158 2503.5,303.5C 2504.17,303.5 2504.5,303.833 2504.5,304.5C 2504.5,304.833 2504.5,305.167 2504.5,305.5C 2505.17,305.5 2505.5,305.833 2505.5,306.5C 2505.5,306.833 2505.5,307.167 2505.5,307.5C 2506.17,307.5 2506.5,307.833 2506.5,308.5C 2506.5,308.833 2506.5,309.167 2506.5,309.5C 2507.17,309.5 2507.5,309.833 2507.5,310.5C 2507.5,310.833 2507.5,311.167 2507.5,311.5C 2508.17,311.5 2508.5,311.833 2508.5,312.5C 2508.5,312.833 2508.5,313.167 2508.5,313.5C 2509.17,313.5 2509.5,313.833 2509.5,314.5C 2509.83,315.833 2510.17,317.167 2510.5,318.5C 2511.17,318.5 2511.5,318.833 2511.5,319.5C 2517.71,339.68 2518.71,359.013 2514.5,377.5C 2512.87,348.074 2500.54,324.24 2477.5,306C 2459.32,292.067 2439.65,280.4 2418.5,271C 2388.45,258.093 2357.78,246.76 2326.5,237C 2298.36,228.422 2270.19,219.922 2242,211.5C 2230.42,217.925 2219.26,224.925 2208.5,232.5C 2228.33,250.157 2248.33,267.657 2268.5,285C 2097.21,314.055 1929.21,356.055 1764.5,411C 1714.25,428.082 1664.25,445.749 1614.5,464C 1624.15,488.301 1632.99,512.801 1641,537.5C 1608.03,572.138 1574.7,606.471 1541,640.5C 1540.41,641.483 1540.74,642.15 1542,642.5C 1677.25,679.37 1803.09,657.537 1919.5,577C 1921.17,575.333 1922.83,573.667 1924.5,572C 1915.21,559.039 1904.21,547.706 1891.5,538C 1922.6,540.134 1946.1,554.634 1962,581.5C 1972.73,600.471 1977.06,620.804 1975,642.5C 1967.33,642.167 1959.67,641.833 1952,641.5C 1952.02,629.732 1951.02,618.065 1949,606.5C 1948.06,603.007 1946.72,599.674 1945,596.5C 1824.73,685.944 1691.23,715.444 1544.5,685C 1526.67,680.667 1509.01,675.834 1491.5,670.5C 1491.67,711.168 1491.5,751.835 1491,792.5C 1431.88,816.214 1380.21,850.881 1336,896.5C 1323.48,910.851 1313.48,926.851 1306,944.5C 1299.75,964.608 1300.08,984.608 1307,1004.5C 1310.52,1011.85 1315.35,1018.18 1321.5,1023.5C 1316.89,1021.53 1312.56,1019.03 1308.5,1016C 1275.72,987.323 1266.89,952.49 1282,911.5C 1294.02,886.667 1310.52,865.167 1331.5,847C 1369.46,815.331 1411.13,789.164 1456.5,768.5C 1457.17,713.833 1457.83,659.167 1458.5,604.5C 1473.44,614.471 1489.44,621.971 1506.5,627C 1539.31,595.195 1571.81,563.028 1604,530.5C 1593,501.167 1582,471.833 1571,442.5C 1678.83,402.945 1787.67,366.278 1897.5,332.5C 1898.17,332.5 1898.5,332.167 1898.5,331.5C 1900.5,331.167 1902.5,330.833 1904.5,330.5C 1905.17,330.5 1905.5,330.167 1905.5,329.5C 1906.17,329.5 1906.83,329.5 1907.5,329.5C 1908.17,329.5 1908.5,329.167 1908.5,328.5C 1910.5,328.167 1912.5,327.833 1914.5,327.5C 1915.17,327.5 1915.5,327.167 1915.5,326.5C 1916.17,326.5 1916.83,326.5 1917.5,326.5C 1918.17,326.5 1918.5,326.167 1918.5,325.5C 1919.5,325.5 1920.5,325.5 1921.5,325.5C 1922.17,325.5 1922.5,325.167 1922.5,324.5C 1923.17,324.5 1923.83,324.5 1924.5,324.5C 1925.17,324.5 1925.5,324.167 1925.5,323.5C 1926.17,323.5 1926.83,323.5 1927.5,323.5C 1928.49,323.672 1929.16,323.338 1929.5,322.5C 1930.17,322.5 1930.83,322.5 1931.5,322.5C 1932.17,322.5 1932.5,322.167 1932.5,321.5C 1933.17,321.5 1933.83,321.5 1934.5,321.5C 1935.49,321.672 1936.16,321.338 1936.5,320.5C 1937.17,320.5 1937.83,320.5 1938.5,320.5C 1939.49,320.672 1940.16,320.338 1940.5,319.5C 1940.83,319.5 1941.17,319.5 1941.5,319.5C 1942.49,319.672 1943.16,319.338 1943.5,318.5C 1944.17,318.5 1944.83,318.5 1945.5,318.5C 1946.49,318.672 1947.16,318.338 1947.5,317.5C 1947.83,317.5 1948.17,317.5 1948.5,317.5C 1949.49,317.672 1950.16,317.338 1950.5,316.5C 1951.17,316.5 1951.83,316.5 1952.5,316.5C 1953.49,316.672 1954.16,316.338 1954.5,315.5C 1954.83,315.5 1955.17,315.5 1955.5,315.5C 1956.79,315.737 1957.79,315.404 1958.5,314.5C 1958.83,314.5 1959.17,314.5 1959.5,314.5C 1960.49,314.672 1961.16,314.338 1961.5,313.5C 1962.17,313.5 1962.83,313.5 1963.5,313.5C 1964.49,313.672 1965.16,313.338 1965.5,312.5C 1965.83,312.5 1966.17,312.5 1966.5,312.5C 1967.79,312.737 1968.79,312.404 1969.5,311.5C 1969.83,311.5 1970.17,311.5 1970.5,311.5C 1971.79,311.737 1972.79,311.404 1973.5,310.5C 1973.83,310.5 1974.17,310.5 1974.5,310.5C 1975.79,310.737 1976.79,310.404 1977.5,309.5C 1978.79,309.737 1979.79,309.404 1980.5,308.5C 1980.83,308.5 1981.17,308.5 1981.5,308.5C 1982.79,308.737 1983.79,308.404 1984.5,307.5C 1984.83,307.5 1985.17,307.5 1985.5,307.5C 1986.79,307.737 1987.79,307.404 1988.5,306.5C 1988.83,306.5 1989.17,306.5 1989.5,306.5C 1990.79,306.737 1991.79,306.404 1992.5,305.5C 1994.1,305.768 1995.43,305.434 1996.5,304.5C 1998.1,304.768 1999.43,304.434 2000.5,303.5C 2002.1,303.768 2003.43,303.434 2004.5,302.5C 2006.1,302.768 2007.43,302.434 2008.5,301.5C 2010.1,301.768 2011.43,301.434 2012.5,300.5C 2014.1,300.768 2015.43,300.434 2016.5,299.5C 2018.1,299.768 2019.43,299.434 2020.5,298.5C 2022.1,298.768 2023.43,298.434 2024.5,297.5C 2084.97,284.039 2145.64,271.539 2206.5,260C 2205.62,259.292 2204.95,258.458 2204.5,257.5C 2206.03,257.483 2206.53,256.816 2206,255.5C 2193.63,243.966 2181.47,232.3 2169.5,220.5C 2191.04,207.807 2212.88,195.474 2235,183.5C 2288.23,199.798 2341.39,216.298 2394.5,233C 2413.56,239.962 2432.22,247.795 2450.5,256.5 Z"/></g>
<g><path style="opacity:1" fill="#fe6600" d="M 3121.5,768.5 C 3122.83,769.167 3122.83,769.167 3121.5,768.5 Z"/></g>
<g><path style="opacity:1" fill="#fe6600" d="M 3119.5,770.5 C 3119.84,769.662 3120.51,769.328 3121.5,769.5C 3121.16,770.338 3120.49,770.672 3119.5,770.5 Z"/></g>
<g><path style="opacity:1" fill="#fe6600" d="M 1914.5,1000.5 C 1914.9,999.475 1915.56,999.308 1916.5,1000C 1915.91,1000.46 1915.24,1000.63 1914.5,1000.5 Z"/></g>
<g><path style="opacity:1" fill="#fe6600" d="M 193.5,1240.5 C 237.072,1240.17 280.572,1240.5 324,1241.5C 381.79,1361.41 439.29,1481.41 496.5,1601.5C 453.495,1601.83 410.495,1601.5 367.5,1600.5C 358.305,1578.91 349.305,1557.25 340.5,1535.5C 280.167,1534.17 219.833,1534.17 159.5,1535.5C 149.226,1557.05 139.226,1578.71 129.5,1600.5C 90.8333,1601.83 52.1667,1601.83 13.5,1600.5C 73.5266,1480.45 133.527,1360.45 193.5,1240.5 Z M 251.5,1328.5 C 270.929,1371.2 290.263,1414.03 309.5,1457C 271.162,1457.83 232.829,1457.67 194.5,1456.5C 213.514,1413.81 232.514,1371.14 251.5,1328.5 Z"/></g>
<g><path style="opacity:1" fill="#fe6600" d="M 2659.5,1240.5 C 2698.99,1237.62 2735.32,1246.79 2768.5,1268C 2786.06,1281.6 2798.89,1298.77 2807,1319.5C 2810.8,1329.05 2814.3,1338.72 2817.5,1348.5C 2803.96,1352.8 2790.29,1356.3 2776.5,1359C 2772.53,1348.77 2768.37,1338.6 2764,1328.5C 2755.28,1313.11 2742.78,1301.95 2726.5,1295C 2679.53,1275.43 2634.86,1279.76 2592.5,1308C 2580.73,1317.43 2571.57,1328.93 2565,1342.5C 2546.87,1387.07 2543.54,1432.74 2555,1479.5C 2570.11,1533.61 2605.61,1563.45 2661.5,1569C 2704.87,1572.58 2743.87,1561.41 2778.5,1535.5C 2779.83,1513.17 2779.83,1490.83 2778.5,1468.5C 2743.89,1465.67 2709.22,1463.34 2674.5,1461.5C 2674.5,1447.5 2674.5,1433.5 2674.5,1419.5C 2723.17,1419.5 2771.83,1419.5 2820.5,1419.5C 2820.67,1463.83 2820.5,1508.17 2820,1552.5C 2793.38,1574.23 2763.55,1590.4 2730.5,1601C 2681.86,1613.41 2634.19,1609.74 2587.5,1590C 2556.67,1573.83 2533.17,1550.33 2517,1519.5C 2495.45,1459.58 2495.11,1399.58 2516,1339.5C 2533.26,1291.24 2566.76,1260.74 2616.5,1248C 2630.79,1244.4 2645.12,1241.9 2659.5,1240.5 Z"/></g>
<g><path style="opacity:1" fill="#fe6600" d="M 514.5,1244.5 C 551.833,1244.5 589.167,1244.5 626.5,1244.5C 626.5,1364.5 626.5,1484.5 626.5,1604.5C 589.167,1604.5 551.833,1604.5 514.5,1604.5C 514.5,1484.5 514.5,1364.5 514.5,1244.5 Z"/></g>
<g><path style="opacity:1" fill="#fe6600" d="M 694.5,1244.5 C 732.167,1244.5 769.833,1244.5 807.5,1244.5C 807.5,1268.83 807.5,1293.17 807.5,1317.5C 769.833,1317.5 732.167,1317.5 694.5,1317.5C 694.5,1293.17 694.5,1268.83 694.5,1244.5 Z"/></g>
<g><path style="opacity:1" fill="#fe6600" d="M 871.5,1244.5 C 909.167,1244.5 946.833,1244.5 984.5,1244.5C 984.333,1291.83 984.5,1339.17 985,1386.5C 1011.69,1359.03 1044.36,1345.37 1083,1345.5C 1133.32,1346.64 1170.66,1368.98 1195,1412.5C 1210.03,1450.21 1213.03,1488.88 1204,1528.5C 1198.6,1549.13 1187.77,1566.3 1171.5,1580C 1130.58,1611.16 1085.25,1619.49 1035.5,1605C 1025.83,1602 1016.83,1597.66 1008.5,1592C 998.732,1584.24 989.565,1575.74 981,1566.5C 980.667,1577.5 980.333,1588.5 980,1599.5C 979.598,1600.87 979.098,1602.21 978.5,1603.5C 940.839,1604.5 903.173,1604.83 865.5,1604.5C 865.853,1600.09 866.686,1595.75 868,1591.5C 869.393,1475.62 870.559,1359.95 871.5,1244.5 Z M 1035.5,1408.5 C 1070.03,1406.19 1089.86,1422.19 1095,1456.5C 1099.64,1481.72 1095.64,1505.38 1083,1527.5C 1064.37,1547.75 1041.87,1553.59 1015.5,1545C 1000.98,1537.81 991.815,1526.31 988,1510.5C 982.806,1486.98 983.473,1463.64 990,1440.5C 993.989,1429.51 1001.16,1421.35 1011.5,1416C 1019.27,1412.35 1027.27,1409.85 1035.5,1408.5 Z"/></g>
<g><path style="opacity:1" fill="#fe6600" d="M 1628.5,1244.5 C 1665.83,1244.5 1703.17,1244.5 1740.5,1244.5C 1740.17,1291.84 1740.5,1339.17 1741.5,1386.5C 1768.38,1358.99 1801.22,1345.32 1840,1345.5C 1892.94,1346.94 1930.94,1371.28 1954,1418.5C 1967.26,1456.32 1968.93,1494.65 1959,1533.5C 1952.9,1553.21 1941.73,1569.38 1925.5,1582C 1879.93,1614.49 1830.93,1620.49 1778.5,1600C 1762.91,1591.42 1749.41,1580.25 1738,1566.5C 1737.67,1575.83 1737.33,1585.17 1737,1594.5C 1736.61,1597.63 1735.77,1600.63 1734.5,1603.5C 1696.84,1604.5 1659.17,1604.83 1621.5,1604.5C 1621.7,1600.38 1622.53,1596.38 1624,1592.5C 1624.17,1575.26 1624.67,1558.09 1625.5,1541C 1624.95,1539.6 1624.62,1538.27 1624.5,1537C 1625.94,1439.35 1627.27,1341.85 1628.5,1244.5 Z M 1795.5,1408.5 C 1830.51,1406.33 1850.34,1422.67 1855,1457.5C 1858.34,1477.72 1856.34,1497.39 1849,1516.5C 1835.94,1541.11 1815.44,1551.61 1787.5,1548C 1769.95,1545.32 1757.79,1535.82 1751,1519.5C 1745.9,1506.32 1743.74,1492.66 1744.5,1478.5C 1743.22,1459.28 1747.72,1441.61 1758,1425.5C 1768.94,1416.25 1781.44,1410.58 1795.5,1408.5 Z"/></g>
<g><path style="opacity:1" fill="#fe6600" d="M 2965.5,1335.5 C 2985.04,1333.47 3002.71,1338.13 3018.5,1349.5C 3013.56,1363 3009.22,1376.66 3005.5,1390.5C 2998.78,1387.14 2991.78,1384.31 2984.5,1382C 2960.44,1377.95 2943.61,1387.11 2934,1409.5C 2930.74,1423 2928.4,1436.67 2927,1450.5C 2926.5,1500.83 2926.33,1551.17 2926.5,1601.5C 2911.34,1601.98 2896.34,1601.48 2881.5,1600C 2881.5,1514.33 2881.5,1428.67 2881.5,1343C 2894.16,1342.5 2906.83,1342.33 2919.5,1342.5C 2919.33,1354.84 2919.5,1367.17 2920,1379.5C 2928.01,1362.66 2939.84,1349.16 2955.5,1339C 2958.98,1337.9 2962.31,1336.73 2965.5,1335.5 Z"/></g>
<g><path style="opacity:1" fill="#fe6600" d="M 3143.5,1338.5 C 3207.96,1335.47 3249.46,1364.8 3268,1426.5C 3270.42,1435.36 3272.09,1444.36 3273,1453.5C 3274.32,1476.28 3273.32,1498.95 3270,1521.5C 3262.19,1550.98 3246.03,1574.81 3221.5,1593C 3181.38,1615.79 3140.38,1617.45 3098.5,1598C 3072.45,1581.45 3054.95,1558.28 3046,1528.5C 3035.5,1488.63 3036.17,1448.97 3048,1409.5C 3060.66,1374.84 3084.83,1352.67 3120.5,1343C 3128.26,1341.27 3135.93,1339.77 3143.5,1338.5 Z M 3146.5,1370.5 C 3186.87,1367.6 3212.7,1385.6 3224,1424.5C 3232.35,1458.9 3231.02,1492.9 3220,1526.5C 3203.22,1561.47 3175.72,1574.97 3137.5,1567C 3115.75,1560.91 3100.58,1547.41 3092,1526.5C 3083.98,1502.46 3081.31,1477.79 3084,1452.5C 3085.85,1433.3 3091.51,1415.3 3101,1398.5C 3112.66,1383.42 3127.83,1374.09 3146.5,1370.5 Z"/></g>
<g><path style="opacity:1" fill="#fe6600" d="M 3710.5,1338.5 C 3740.53,1338.01 3766.7,1347.67 3789,1367.5C 3809.77,1393.44 3821.77,1423.11 3825,1456.5C 3830.52,1501.47 3818.85,1541.14 3790,1575.5C 3763.24,1601.97 3731.41,1611.8 3694.5,1605C 3678.13,1598.3 3664.3,1588.14 3653,1574.5C 3652.67,1615.83 3652.33,1657.17 3652,1698.5C 3637.24,1699.49 3622.41,1699.82 3607.5,1699.5C 3607.5,1580.5 3607.5,1461.5 3607.5,1342.5C 3620.17,1342.5 3632.83,1342.5 3645.5,1342.5C 3645.33,1353.51 3645.5,1364.51 3646,1375.5C 3652.5,1366.33 3660.33,1358.5 3669.5,1352C 3682.85,1346.16 3696.52,1341.66 3710.5,1338.5 Z M 3711.5,1373.5 C 3736.78,1372.72 3755.95,1383.06 3769,1404.5C 3777.62,1419.68 3782.62,1436.02 3784,1453.5C 3785.84,1475.79 3784.17,1497.79 3779,1519.5C 3772.76,1542.73 3758.93,1559.56 3737.5,1570C 3719.61,1575.53 3702.61,1573.53 3686.5,1564C 3663.87,1548.58 3651.7,1527.08 3650,1499.5C 3647.67,1479.07 3648.34,1458.73 3652,1438.5C 3658.36,1410.59 3674.19,1390.09 3699.5,1377C 3703.62,1375.81 3707.62,1374.64 3711.5,1373.5 Z"/></g>
<g><path style="opacity:1" fill="#fe6600" d="M 3331.5,1342.5 C 3346.5,1342.5 3361.5,1342.5 3376.5,1342.5C 3376.02,1403.87 3376.52,1465.2 3378,1526.5C 3383.79,1553.81 3400.62,1568.14 3428.5,1569.5C 3457.05,1568.5 3477.21,1555.17 3489,1529.5C 3492.47,1517.07 3494.47,1504.4 3495,1491.5C 3495.5,1441.83 3495.67,1392.17 3495.5,1342.5C 3510.17,1342.5 3524.83,1342.5 3539.5,1342.5C 3539.5,1428.83 3539.5,1515.17 3539.5,1601.5C 3524.83,1601.5 3510.17,1601.5 3495.5,1601.5C 3495.67,1588.83 3495.5,1576.16 3495,1563.5C 3466.13,1604.79 3427.96,1616.96 3380.5,1600C 3368.25,1594.81 3357.75,1587.31 3349,1577.5C 3337.14,1557.87 3331.47,1536.54 3332,1513.5C 3331.5,1456.5 3331.33,1399.5 3331.5,1342.5 Z"/></g>
<g><path style="opacity:1" fill="#fe6600" d="M 1398.5,1345.5 C 1425.31,1344.61 1451.98,1346.11 1478.5,1350C 1508.12,1354.05 1532.28,1367.55 1551,1390.5C 1559.53,1402.08 1564.53,1415.08 1566,1429.5C 1566.33,1482.5 1566.67,1535.5 1567,1588.5C 1568.28,1592.82 1569.44,1597.16 1570.5,1601.5C 1535.16,1601.83 1499.83,1601.5 1464.5,1600.5C 1463.39,1598.61 1462.56,1596.61 1462,1594.5C 1461.83,1585.48 1461.33,1576.48 1460.5,1567.5C 1439.89,1591.8 1413.56,1604.97 1381.5,1607C 1352.16,1610.24 1323.5,1607.24 1295.5,1598C 1271.78,1589.28 1257.95,1572.45 1254,1547.5C 1251.55,1507.95 1268.71,1480.78 1305.5,1466C 1335.71,1456.13 1366.71,1450.46 1398.5,1449C 1419.39,1448.1 1440.23,1447.26 1461,1446.5C 1463.85,1423.66 1454.35,1409.16 1432.5,1403C 1415.37,1399.85 1399.03,1402.18 1383.5,1410C 1376.57,1414.69 1372.91,1421.19 1372.5,1429.5C 1337.17,1429.67 1301.83,1429.5 1266.5,1429C 1269.38,1394.11 1287.38,1370.78 1320.5,1359C 1346.06,1351.13 1372.06,1346.63 1398.5,1345.5 Z M 1439.5,1492.5 C 1445.5,1492.5 1451.5,1492.5 1457.5,1492.5C 1460.13,1530.98 1442.29,1550.98 1404,1552.5C 1396.29,1552.5 1388.46,1551.66 1380.5,1550C 1364.27,1541.38 1359.43,1528.55 1366,1511.5C 1369.79,1505.85 1374.95,1502.02 1381.5,1500C 1400.77,1495.84 1420.1,1493.34 1439.5,1492.5 Z"/></g>
<g><path style="opacity:1" fill="#fe6600" d="M 2155.5,1345.5 C 2182.31,1344.61 2208.98,1346.11 2235.5,1350C 2263.74,1354.36 2287.24,1367.2 2306,1388.5C 2316.41,1402.4 2322.08,1418.06 2323,1435.5C 2323.33,1487.17 2323.67,1538.83 2324,1590.5C 2325.15,1594.11 2325.98,1597.78 2326.5,1601.5C 2291.5,1601.67 2256.5,1601.5 2221.5,1601C 2219.65,1598.46 2218.48,1595.62 2218,1592.5C 2217.67,1584.17 2217.33,1575.83 2217,1567.5C 2198.33,1589.59 2174.5,1602.42 2145.5,1606C 2112.74,1610.76 2080.74,1607.76 2049.5,1597C 2025.64,1587.13 2012.48,1569.3 2010,1543.5C 2008.73,1512.53 2021.23,1489.03 2047.5,1473C 2067,1462.96 2087.67,1456.62 2109.5,1454C 2145.32,1448.92 2181.32,1446.75 2217.5,1447.5C 2218.72,1436.9 2216.88,1426.9 2212,1417.5C 2205.82,1409.49 2197.65,1404.65 2187.5,1403C 2171.01,1399.93 2155.34,1402.26 2140.5,1410C 2134.62,1415.25 2130.96,1421.75 2129.5,1429.5C 2094.17,1429.5 2058.83,1429.5 2023.5,1429.5C 2023.66,1403.35 2034.66,1383.18 2056.5,1369C 2076.4,1357.92 2097.74,1351.26 2120.5,1349C 2132.29,1347.55 2143.96,1346.39 2155.5,1345.5 Z M 2199.5,1492.5 C 2205.5,1492.5 2211.5,1492.5 2217.5,1492.5C 2219.39,1530.43 2201.55,1550.43 2164,1552.5C 2157.36,1552.4 2150.53,1551.9 2143.5,1551C 2128.54,1545.36 2121.71,1534.53 2123,1518.5C 2126.46,1507.38 2133.96,1500.88 2145.5,1499C 2163.49,1495.48 2181.49,1493.31 2199.5,1492.5 Z"/></g>
<g><path style="opacity:1" fill="#fe6600" d="M 694.5,1352.5 C 732.167,1352.5 769.833,1352.5 807.5,1352.5C 807.5,1436.5 807.5,1520.5 807.5,1604.5C 769.833,1604.5 732.167,1604.5 694.5,1604.5C 694.5,1520.5 694.5,1436.5 694.5,1352.5 Z"/></g>
<g><path style="opacity:1" fill="#fe6600" d="M 1280.5,1720.5 C 1374.83,1720.5 1469.17,1720.5 1563.5,1720.5C 1563.67,1769.5 1563.5,1818.5 1563,1867.5C 1553.91,1884.59 1540.41,1896.75 1522.5,1904C 1497.55,1905.46 1472.55,1905.96 1447.5,1905.5C 1447.5,1913.83 1447.5,1922.17 1447.5,1930.5C 1487.17,1930.17 1526.84,1930.5 1566.5,1931.5C 1561.65,1943.18 1554.65,1953.35 1545.5,1962C 1543.28,1963.28 1540.95,1964.28 1538.5,1965C 1508.17,1965.5 1477.84,1965.67 1447.5,1965.5C 1447.5,1974.83 1447.5,1984.17 1447.5,1993.5C 1489.21,1991.88 1531.21,1990.71 1573.5,1990C 1566.89,2000.28 1559.89,2010.28 1552.5,2020C 1550.5,2021.33 1548.5,2022.67 1546.5,2024C 1456.83,2024.5 1367.17,2024.67 1277.5,2024.5C 1277.5,2012.83 1277.5,2001.17 1277.5,1989.5C 1316.17,1989.5 1354.83,1989.5 1393.5,1989.5C 1393.82,1980.25 1393.48,1971.08 1392.5,1962C 1355.17,1961.5 1317.83,1961.33 1280.5,1961.5C 1280.5,1949.83 1280.5,1938.17 1280.5,1926.5C 1318.17,1926.5 1355.83,1926.5 1393.5,1926.5C 1393.5,1918.5 1393.5,1910.5 1393.5,1902.5C 1355.83,1902.5 1318.17,1902.5 1280.5,1902.5C 1280.5,1841.83 1280.5,1781.17 1280.5,1720.5 Z M 1331.5,1758.5 C 1351.84,1758.33 1372.17,1758.5 1392.5,1759C 1393.65,1771.42 1393.82,1783.92 1393,1796.5C 1372.91,1797.66 1352.74,1797.83 1332.5,1797C 1331.51,1784.25 1331.18,1771.41 1331.5,1758.5 Z M 1451.5,1758.5 C 1471.83,1758.5 1492.17,1758.5 1512.5,1758.5C 1512.5,1797.17 1512.5,1835.83 1512.5,1874.5C 1490.83,1874.5 1469.17,1874.5 1447.5,1874.5C 1447.5,1860.5 1447.5,1846.5 1447.5,1832.5C 1456.84,1832.67 1466.17,1832.5 1475.5,1832C 1477.25,1831.53 1478.91,1830.86 1480.5,1830C 1489.83,1819.33 1499.17,1808.67 1508.5,1798C 1489.5,1797.5 1470.5,1797.33 1451.5,1797.5C 1451.5,1784.5 1451.5,1771.5 1451.5,1758.5 Z M 1331.5,1832.5 C 1352.17,1832.5 1372.83,1832.5 1393.5,1832.5C 1393.5,1845.17 1393.5,1857.83 1393.5,1870.5C 1372.83,1870.5 1352.17,1870.5 1331.5,1870.5C 1331.5,1857.83 1331.5,1845.17 1331.5,1832.5 Z"/></g>
<g><path style="opacity:1" fill="#fe6600" d="M 2417.5,1720.5 C 2424.51,1720.33 2431.51,1720.5 2438.5,1721C 2435.62,1725.25 2432.62,1729.42 2429.5,1733.5C 2471.17,1734.17 2512.83,1734.83 2554.5,1735.5C 2548.43,1744.21 2540.1,1749.37 2529.5,1751C 2493.83,1751.5 2458.17,1751.67 2422.5,1751.5C 2422.5,1760.83 2422.5,1770.17 2422.5,1779.5C 2465.51,1779.17 2508.51,1779.5 2551.5,1780.5C 2546.11,1791.04 2537.44,1796.54 2525.5,1797C 2492.17,1797.5 2458.83,1797.67 2425.5,1797.5C 2425.5,1806.83 2425.5,1816.17 2425.5,1825.5C 2468.51,1825.17 2511.51,1825.5 2554.5,1826.5C 2550.43,1835.55 2543.43,1840.71 2533.5,1842C 2498.5,1842.5 2463.5,1842.67 2428.5,1842.5C 2428.18,1853.08 2428.51,1863.58 2429.5,1874C 2471.17,1874.17 2512.84,1874.67 2554.5,1875.5C 2550.43,1884.55 2543.43,1889.71 2533.5,1891C 2462.17,1891.33 2390.83,1891.67 2319.5,1892C 2304.98,1894.65 2290.31,1895.81 2275.5,1895.5C 2275.5,1862.83 2275.5,1830.17 2275.5,1797.5C 2267.8,1797.83 2260.14,1797.5 2252.5,1796.5C 2270.17,1772.5 2287.83,1748.5 2305.5,1724.5C 2312.48,1723.34 2319.48,1723.17 2326.5,1724C 2323.55,1728.62 2320.22,1732.95 2316.5,1737C 2345.17,1737.67 2373.83,1737.67 2402.5,1737C 2407.34,1731.33 2412.34,1725.83 2417.5,1720.5 Z M 2309.5,1755.5 C 2341.5,1755.33 2373.5,1755.5 2405.5,1756C 2404.41,1764.76 2404.41,1773.42 2405.5,1782C 2369.31,1783.66 2332.98,1783.99 2296.5,1783C 2296.63,1780.15 2296.3,1777.15 2295.5,1774C 2301.03,1768.43 2305.69,1762.26 2309.5,1755.5 Z M 2296.5,1800.5 C 2332.51,1800.17 2368.51,1800.5 2404.5,1801.5C 2404.71,1810.05 2405.04,1818.55 2405.5,1827C 2369.31,1828.66 2332.98,1828.99 2296.5,1828C 2296.36,1819.14 2296.36,1809.97 2296.5,1800.5 Z M 2296.5,1846.5 C 2332.5,1846.33 2368.5,1846.5 2404.5,1847C 2404.83,1855.33 2405.17,1863.67 2405.5,1872C 2405.04,1872.41 2404.71,1872.91 2404.5,1873.5C 2368.5,1874.83 2332.5,1874.83 2296.5,1873.5C 2295.21,1864.48 2295.21,1855.48 2296.5,1846.5 Z"/></g>
<g><path style="opacity:1" fill="#fe6600" d="M 953.5,1723.5 C 987.5,1723.5 1021.5,1723.5 1055.5,1723.5C 1055.67,1754.17 1055.5,1784.84 1055,1815.5C 1054.19,1818.45 1052.86,1821.11 1051,1823.5C 1045.83,1828.67 1040.67,1833.83 1035.5,1839C 1040.97,1843.47 1046.13,1848.3 1051,1853.5C 1052.86,1855.89 1054.19,1858.55 1055,1861.5C 1055.67,1887.17 1055.67,1912.83 1055,1938.5C 1044.56,1964.7 1025.39,1974.7 997.5,1968.5C 1002.29,2002.96 987.622,2022.96 953.5,2028.5C 953.5,1926.83 953.5,1825.17 953.5,1723.5 Z M 997.5,1758.5 C 1003.17,1758.5 1008.83,1758.5 1014.5,1758.5C 1014.67,1782.17 1014.5,1805.84 1014,1829.5C 1011.88,1836.57 1007.72,1842.07 1001.5,1846C 1005.82,1846.5 1010.15,1846.67 1014.5,1846.5C 1014.5,1875.5 1014.5,1904.5 1014.5,1933.5C 1008.83,1933.5 1003.17,1933.5 997.5,1933.5C 997.5,1875.17 997.5,1816.83 997.5,1758.5 Z"/></g>
<g><path style="opacity:1" fill="#fe6600" d="M 1062.5,1723.5 C 1125.31,1723 1187.98,1723.5 1250.5,1725C 1249.12,1736 1245.96,1746.5 1241,1756.5C 1238.46,1759.37 1235.63,1761.87 1232.5,1764C 1232.83,1838.33 1233.17,1912.67 1233.5,1987C 1228.68,2011.65 1213.68,2025.48 1188.5,2028.5C 1188.5,1939.83 1188.5,1851.17 1188.5,1762.5C 1146.5,1762.5 1104.5,1762.5 1062.5,1762.5C 1062.5,1749.5 1062.5,1736.5 1062.5,1723.5 Z"/></g>
<g><path style="opacity:1" fill="#fe6600" d="M 1600.5,1723.5 C 1694.83,1723.5 1789.17,1723.5 1883.5,1723.5C 1883.67,1769.83 1883.5,1816.17 1883,1862.5C 1873.45,1881.72 1858.61,1894.89 1838.5,1902C 1777.5,1902.5 1716.5,1902.67 1655.5,1902.5C 1655.5,1931.5 1655.5,1960.5 1655.5,1989.5C 1733.84,1989.17 1812.17,1989.5 1890.5,1990.5C 1884.7,2003.62 1876.37,2014.79 1865.5,2024C 1862.38,2025.89 1859.05,2027.23 1855.5,2028C 1780.83,2028.67 1706.17,2028.67 1631.5,2028C 1619.79,2025.72 1611.29,2019.22 1606,2008.5C 1603.08,2002.15 1601.41,1995.48 1601,1988.5C 1600.5,1900.17 1600.33,1811.83 1600.5,1723.5 Z M 1655.5,1762.5 C 1675.83,1762.5 1696.17,1762.5 1716.5,1762.5C 1716.5,1796.17 1716.5,1829.83 1716.5,1863.5C 1696.17,1863.5 1675.83,1863.5 1655.5,1863.5C 1655.5,1829.83 1655.5,1796.17 1655.5,1762.5 Z M 1771.5,1762.5 C 1791.83,1762.5 1812.17,1762.5 1832.5,1762.5C 1832.5,1796.17 1832.5,1829.83 1832.5,1863.5C 1812.17,1863.5 1791.83,1863.5 1771.5,1863.5C 1771.5,1829.83 1771.5,1796.17 1771.5,1762.5 Z"/></g>
<g><path style="opacity:1" fill="#fe6600" d="M 1924.5,1723.5 C 2018.83,1723.5 2113.17,1723.5 2207.5,1723.5C 2207.67,1769.5 2207.5,1815.5 2207,1861.5C 2197.86,1881.31 2183.03,1894.81 2162.5,1902C 2101.5,1902.5 2040.5,1902.67 1979.5,1902.5C 1979.5,1931.5 1979.5,1960.5 1979.5,1989.5C 2056.5,1989.17 2133.5,1989.5 2210.5,1990.5C 2205.34,2002.5 2198.01,2013 2188.5,2022C 2184.95,2024.88 2180.95,2026.88 2176.5,2028C 2102.5,2028.67 2028.5,2028.67 1954.5,2028C 1936.82,2022.85 1926.98,2011.02 1925,1992.5C 1924.5,1902.83 1924.33,1813.17 1924.5,1723.5 Z M 1979.5,1762.5 C 1999.83,1762.5 2020.17,1762.5 2040.5,1762.5C 2040.5,1796.17 2040.5,1829.83 2040.5,1863.5C 2020.17,1863.5 1999.83,1863.5 1979.5,1863.5C 1979.5,1829.83 1979.5,1796.17 1979.5,1762.5 Z M 2095.5,1762.5 C 2115.83,1762.5 2136.17,1762.5 2156.5,1762.5C 2156.5,1796.17 2156.5,1829.83 2156.5,1863.5C 2135.68,1863.99 2115.02,1863.49 2094.5,1862C 2094.6,1828.88 2094.93,1795.71 2095.5,1762.5 Z"/></g>
<g><path style="opacity:1" fill="#fe6600" d="M 2609.5,1723.5 C 2701.5,1723.5 2793.5,1723.5 2885.5,1723.5C 2885.18,1816.68 2885.51,1909.84 2886.5,2003C 2887.23,2016.92 2881.23,2026.25 2868.5,2031C 2782.17,2031.5 2695.83,2031.67 2609.5,2031.5C 2609.5,1928.83 2609.5,1826.17 2609.5,1723.5 Z M 2630.5,1744.5 C 2709.83,1744.5 2789.17,1744.5 2868.5,1744.5C 2868.99,1830.87 2868.49,1917.2 2867,2003.5C 2864.51,2009.66 2860.01,2013.16 2853.5,2014C 2778.93,2014.83 2704.43,2014.66 2630,2013.5C 2629.17,1923.76 2629.34,1834.1 2630.5,1744.5 Z"/></g>
<g><path style="opacity:1" fill="#fe6600" d="M 2803.5,1779.5 C 2810.5,1779.5 2817.5,1779.5 2824.5,1779.5C 2824.5,1792.5 2824.5,1805.5 2824.5,1818.5C 2832.17,1818.5 2839.83,1818.5 2847.5,1818.5C 2844.12,1829.87 2836.46,1835.53 2824.5,1835.5C 2824.67,1875.83 2824.5,1916.17 2824,1956.5C 2823.94,1962.33 2822.11,1967.5 2818.5,1972C 2816.28,1973.28 2813.95,1974.28 2811.5,1975C 2799.84,1975.5 2788.17,1975.67 2776.5,1975.5C 2776.5,1969.83 2776.5,1964.17 2776.5,1958.5C 2784.59,1958.9 2792.59,1958.4 2800.5,1957C 2801.46,1955.58 2802.29,1954.08 2803,1952.5C 2803.5,1913.5 2803.67,1874.5 2803.5,1835.5C 2755.83,1835.5 2708.17,1835.5 2660.5,1835.5C 2660.5,1829.83 2660.5,1824.17 2660.5,1818.5C 2708.17,1818.5 2755.83,1818.5 2803.5,1818.5C 2803.5,1805.5 2803.5,1792.5 2803.5,1779.5 Z"/></g>
<g><path style="opacity:1" fill="#fe6600" d="M 1072.5,1783.5 C 1107.83,1783.5 1143.17,1783.5 1178.5,1783.5C 1178.67,1831.17 1178.5,1878.83 1178,1926.5C 1176.04,1936.46 1170.87,1944.29 1162.5,1950C 1154.34,1956.92 1145.34,1962.58 1135.5,1967C 1114.55,1968.45 1093.55,1968.95 1072.5,1968.5C 1072.5,1906.83 1072.5,1845.17 1072.5,1783.5 Z M 1113.5,1818.5 C 1121.5,1818.5 1129.5,1818.5 1137.5,1818.5C 1137.5,1856.83 1137.5,1895.17 1137.5,1933.5C 1129.5,1933.5 1121.5,1933.5 1113.5,1933.5C 1113.5,1895.17 1113.5,1856.83 1113.5,1818.5 Z"/></g>
<g><path style="opacity:1" fill="#fe6600" d="M 2728.5,1856.5 C 2735.2,1856.17 2741.87,1856.5 2748.5,1857.5C 2729.84,1893.49 2710.68,1929.15 2691,1964.5C 2684.19,1973.33 2675.36,1976.66 2664.5,1974.5C 2685.85,1935.14 2707.18,1895.81 2728.5,1856.5 Z"/></g>
<g><path style="opacity:1" fill="#fe6600" d="M 2401.5,1916.5 C 2408.5,1916.5 2415.5,1916.5 2422.5,1916.5C 2422.5,1918.83 2422.5,1921.17 2422.5,1923.5C 2465.5,1923.33 2508.5,1923.5 2551.5,1924C 2547.1,1933.21 2539.77,1938.55 2529.5,1940C 2494.83,1940.5 2460.17,1940.67 2425.5,1940.5C 2425.67,1959.5 2425.5,1978.5 2425,1997.5C 2423.88,2012.77 2416.21,2023.1 2402,2028.5C 2401.5,1999.17 2401.33,1969.84 2401.5,1940.5C 2350.5,1940.5 2299.5,1940.5 2248.5,1940.5C 2248.5,1934.83 2248.5,1929.17 2248.5,1923.5C 2299.78,1924.39 2350.78,1925.39 2401.5,1926.5C 2401.5,1923.17 2401.5,1919.83 2401.5,1916.5 Z"/></g>
<g><path style="opacity:1" fill="#fe6600" d="M 2308.5,1972.5 C 2316.53,1972.17 2324.53,1972.5 2332.5,1973.5C 2319.43,1990.46 2305.76,2006.96 2291.5,2023C 2283.29,2030.74 2273.62,2033.4 2262.5,2031C 2278.07,2011.61 2293.4,1992.11 2308.5,1972.5 Z"/></g>
<g><path style="opacity:1" fill="#fe6600" d="M 2480.5,1973.5 C 2488.32,1972.34 2496.32,1972.18 2504.5,1973C 2519.79,1992.62 2535.45,2011.96 2551.5,2031C 2541.47,2033.16 2532.47,2031.16 2524.5,2025C 2520,2020.5 2515.5,2016 2511,2011.5C 2500.97,1998.65 2490.8,1985.98 2480.5,1973.5 Z"/></g>
</svg>
