<svg width="34" height="34" viewBox="0 0 34 34" fill="none" xmlns="http://www.w3.org/2000/svg">
<path d="M31.1667 8.08928V21.661C31.1667 25.571 27.9933 28.7443 24.0833 28.7443H9.91666C9.265 28.7443 8.64166 28.6593 8.0325 28.4893C7.15416 28.2485 6.87083 27.1293 7.5225 26.4776L22.5817 11.4185C22.8933 11.1068 23.3608 11.036 23.8 11.121C24.2533 11.206 24.7492 11.0785 25.1033 10.7385L28.7442 7.08345C30.0758 5.75178 31.1667 6.19095 31.1667 8.08928Z" fill="white"/>
<path d="M20.74 10.4268L5.9075 25.2593C5.22749 25.9393 4.09416 25.7693 3.64083 24.9193C3.11666 23.956 2.83333 22.8368 2.83333 21.661V8.08932C2.83333 6.19098 3.92416 5.75182 5.25583 7.08348L8.91083 10.7526C9.46333 11.291 10.37 11.291 10.9225 10.7526L15.9942 5.66682C16.5467 5.11432 17.4533 5.11432 18.0058 5.66682L20.7542 8.41515C21.2925 8.96765 21.2925 9.87432 20.74 10.4268Z" fill="white"/>
</svg>
