<svg width="34" height="34" viewBox="0 0 34 34" fill="none" xmlns="http://www.w3.org/2000/svg">
<path d="M17.0886 2.92556C16.6783 2.74566 16.2742 2.87151 16.0142 3.13627C15.7617 3.39345 15.6354 3.78597 15.7239 4.18172C15.8637 4.80639 15.9375 5.45629 15.9375 6.12385C15.9375 7.64796 15.5534 8.71543 14.8924 9.60034C14.2205 10.4999 13.2479 11.2323 12.0199 12.0586C12.0006 12.0716 11.9827 12.0864 11.9663 12.1029L11.8175 12.2528C9.18277 13.955 7.4375 16.9188 7.4375 20.2905C7.4375 25.5717 11.7188 29.853 17 29.853C22.2812 29.853 26.5625 25.5717 26.5625 20.2905C26.5625 18.7399 26.1932 17.2745 25.5373 15.9785C25.484 15.8731 25.3816 15.8012 25.2643 15.7869C25.147 15.7725 25.0303 15.8176 24.9531 15.9071C24.8532 16.0229 24.7554 16.1373 24.659 16.2499C23.4148 17.7036 22.4107 18.8768 20.3521 19.4009C20.2645 19.4232 20.2101 19.4066 20.1715 19.3825C20.1261 19.3541 20.0764 19.2975 20.0424 19.207C19.9714 19.0184 20.0019 18.7779 20.1473 18.6202C21.2483 17.4266 22.0304 15.8062 22.3099 13.5011C22.8335 9.18324 20.871 4.5839 17.0886 2.92556Z" fill="white"/>
</svg>
