<svg width="1440" height="185" viewBox="0 0 1440 185" fill="none" xmlns="http://www.w3.org/2000/svg">
<g clip-path="url(#clip0_2340_1142)">
<g clip-path="url(#clip1_2340_1142)">
<path d="M1428.48 11.8236L1416.67 0.015625L1404.86 11.8236L1393.06 0.015625L1381.25 11.8236L1369.44 0.015625L1357.63 11.8236L1345.82 0.015625L1334.02 11.8236L1322.21 0.015625L1310.4 11.8236L1298.59 0.015625L1286.78 11.8236L1274.98 0.015625L1263.17 11.8236L1251.36 0.015625L1239.55 11.8236L1227.74 0.015625L1215.94 11.8236L1204.13 0.015625L1192.32 11.8236L1180.51 0.015625L1168.7 11.8236L1156.9 0.015625L1145.09 11.8236L1133.28 0.015625L1121.47 11.8236L1109.66 0.015625L1097.86 11.8236L1086.05 0.015625L1074.24 11.8236L1062.43 0.015625L1050.62 11.8236L1038.82 0.015625L1027.01 11.8236L1015.2 0.015625L1003.39 11.8236L991.584 0.015625L979.776 11.8236L967.968 0.015625L956.16 11.8236L944.352 0.015625L932.544 11.8236L920.736 0.015625L908.928 11.8236L897.12 0.015625L885.312 11.8236L873.504 0.015625L861.696 11.8236L849.888 0.015625L838.08 11.8236L826.272 0.015625L814.464 11.8236L802.656 0.015625L790.848 11.8236L779.04 0.015625L767.232 11.8236L755.424 0.015625L743.616 11.8236L731.808 0.015625L720 11.8236L708.192 0.015625L696.384 11.8236L684.576 0.015625L672.768 11.8236L660.96 0.015625L649.152 11.8236L637.344 0.015625L625.536 11.8236L613.728 0.015625L601.92 11.8236L590.112 0.015625L578.304 11.8236L566.496 0.015625L554.688 11.8236L542.88 0.015625L531.072 11.8236L519.264 0.015625L507.456 11.8236L495.648 0.015625L483.84 11.8236L472.032 0.015625L460.224 11.8236L448.416 0.015625L436.608 11.8236L424.8 0.015625L412.992 11.8236L401.184 0.015625L389.376 11.8236L377.568 0.015625L365.76 11.8236L353.952 0.015625L342.144 11.8236L330.336 0.015625L318.528 11.8236L306.72 0.015625L294.912 11.8236L283.104 0.015625L271.296 11.8236L259.488 0.015625L247.68 11.8236L235.872 0.015625L224.064 11.8236L212.256 0.015625L200.448 11.8236L188.64 0.015625L176.832 11.8236L165.024 0.015625L153.216 11.8236L141.408 0.015625L129.6 11.8236L117.792 0.015625L105.984 11.8236L94.176 0.015625L82.368 11.8236L70.56 0.015625L58.752 11.8236L46.944 0.015625L35.136 11.8236L23.328 0.015625L11.52 11.8236L-0.288025 0.015625V14.4156H1440.29V0.015625" fill="#1D1A32"/>
</g>
</g>
<rect y="14.0156" width="1440" height="171" fill="#1D1A32"/>
<defs>
<clipPath id="clip0_2340_1142">
<rect width="1440" height="14.4" fill="white" transform="translate(0 0.015625)"/>
</clipPath>
<clipPath id="clip1_2340_1142">
<rect width="1440" height="14.4" fill="white" transform="translate(0 0.015625)"/>
</clipPath>
</defs>
</svg>
