<svg width="34" height="34" viewBox="0 0 34 34" fill="none" xmlns="http://www.w3.org/2000/svg">
<path d="M21.6183 31.1667C21.5333 31.1667 21.4342 31.1526 21.3492 31.1242C18.5017 30.3167 15.5125 30.3167 12.665 31.1242C12.1408 31.2659 11.5883 30.9684 11.4467 30.4442C11.2908 29.9201 11.6025 29.3676 12.1267 29.2259C15.3283 28.3192 18.7 28.3192 21.9017 29.2259C22.4258 29.3817 22.7375 29.9201 22.5817 30.4442C22.44 30.8834 22.0433 31.1667 21.6183 31.1667Z" fill="white"/>
<path d="M27.2141 9.01014C25.7408 6.03514 22.8933 3.8393 19.5925 3.1168C16.1358 2.3518 12.5941 3.17347 9.88831 5.35514C7.16831 7.52264 5.62415 10.7668 5.62415 14.2376C5.62415 17.9068 7.81998 21.746 11.135 23.9701V25.146C11.1208 25.5426 11.1066 26.1518 11.5883 26.6476C12.0841 27.1576 12.8208 27.2143 13.4016 27.2143H20.6691C21.4341 27.2143 22.015 27.0018 22.4116 26.6051C22.95 26.0526 22.9358 25.3443 22.9216 24.9618V23.9701C27.3133 21.0093 30.0758 14.7618 27.2141 9.01014ZM19.4366 16.4618L17.9208 19.0968C17.7225 19.4368 17.3683 19.6351 17 19.6351C16.8158 19.6351 16.6316 19.5926 16.4758 19.4935C15.9658 19.196 15.7958 18.5443 16.0791 18.0485L17.2833 15.9518H16.0933C15.385 15.9518 14.8041 15.6401 14.4925 15.116C14.1808 14.5776 14.2091 13.926 14.5633 13.3026L16.0791 10.6676C16.3766 10.1576 17.0283 9.98764 17.5241 10.271C18.0341 10.5685 18.2041 11.2201 17.9208 11.716L16.7166 13.8126H17.9066C18.615 13.8126 19.1958 14.1243 19.5075 14.6485C19.8191 15.1868 19.7908 15.8526 19.4366 16.4618Z" fill="white"/>
</svg>
