<svg width="113" height="57" viewBox="0 0 113 57" fill="none" xmlns="http://www.w3.org/2000/svg">
<path d="M0.617126 8.26444H4.36071C4.40301 8.53939 4.5352 8.78262 4.75728 8.99412C4.98993 9.19505 5.30189 9.35367 5.69317 9.47C6.08445 9.57575 6.54447 9.62862 7.07322 9.62862C7.8029 9.62862 8.36867 9.54402 8.77052 9.37482C9.18295 9.20562 9.38917 8.94653 9.38917 8.59755C9.38917 8.35433 9.27284 8.15869 9.04019 8.01063C8.80754 7.85201 8.34752 7.74626 7.66014 7.69338L5.56627 7.51889C3.85311 7.39199 2.61053 7.02186 1.83855 6.40851C1.07714 5.78458 0.69644 4.94914 0.69644 3.90221C0.69644 3.04563 0.944954 2.33181 1.44198 1.76075C1.93901 1.17912 2.63168 0.740256 3.51999 0.444154C4.4083 0.148051 5.45523 0 6.66079 0C7.82405 0 8.85513 0.163914 9.75401 0.491741C10.6635 0.819569 11.3826 1.28487 11.9113 1.88765C12.4507 2.47986 12.7468 3.17253 12.7996 3.96566H9.05605C9.01375 3.73301 8.89214 3.53208 8.69121 3.36288C8.50086 3.1831 8.22591 3.04563 7.86635 2.95045C7.5068 2.85528 7.07851 2.80769 6.58148 2.80769C5.92582 2.80769 5.40236 2.887 5.01108 3.04563C4.63037 3.20425 4.44002 3.44219 4.44002 3.75945C4.44002 3.9921 4.55106 4.18245 4.77314 4.3305C5.00579 4.47855 5.42879 4.57902 6.04215 4.63189L8.34223 4.82224C9.48434 4.90684 10.4044 5.08662 11.1023 5.36157C11.8109 5.62595 12.3238 5.99079 12.641 6.4561C12.9583 6.91082 13.1169 7.48717 13.1169 8.18512C13.1169 9.03113 12.8631 9.77668 12.3555 10.4218C11.8479 11.0563 11.1341 11.5533 10.214 11.9128C9.30457 12.2618 8.23648 12.4363 7.00977 12.4363C5.75134 12.4363 4.64624 12.2618 3.69448 11.9128C2.74272 11.5639 1.99718 11.0774 1.45785 10.4535C0.918517 9.81898 0.638277 9.08929 0.617126 8.26444Z" fill="white"/>
<path d="M14.6781 0.269664H18.3741V12.1666H14.6781V0.269664ZM23.9419 0.269664H27.6379V12.1666H23.9419V0.269664ZM16.7561 4.47326H25.433V7.74097H16.7561V4.47326Z" fill="white"/>
<path d="M36.3666 12.4363C34.9389 12.4363 33.6858 12.1772 32.6071 11.659C31.539 11.1409 30.7036 10.4165 30.1008 9.48586C29.5086 8.55525 29.2125 7.46602 29.2125 6.21816C29.2125 4.97029 29.5086 3.88106 30.1008 2.95045C30.7036 2.01984 31.539 1.29545 32.6071 0.777269C33.6858 0.259089 34.9389 0 36.3666 0C37.7942 0 39.0421 0.259089 40.1101 0.777269C41.1888 1.29545 42.0242 2.01984 42.6164 2.95045C43.2192 3.88106 43.5206 4.97029 43.5206 6.21816C43.5206 7.46602 43.2192 8.55525 42.6164 9.48586C42.0242 10.4165 41.1888 11.1409 40.1101 11.659C39.0421 12.1772 37.7942 12.4363 36.3666 12.4363ZM36.3666 9.15274C37.0751 9.15274 37.6832 9.03642 38.1908 8.80377C38.709 8.56054 39.1055 8.22214 39.3805 7.78856C39.6554 7.3444 39.7929 6.82094 39.7929 6.21816C39.7929 5.61538 39.6554 5.0972 39.3805 4.66362C39.1055 4.21946 38.709 3.88106 38.1908 3.64841C37.6832 3.40518 37.0751 3.28357 36.3666 3.28357C35.658 3.28357 35.0447 3.40518 34.5265 3.64841C34.0189 3.88106 33.6276 4.21946 33.3527 4.66362C33.0777 5.0972 32.9402 5.61538 32.9402 6.21816C32.9402 6.82094 33.0777 7.3444 33.3527 7.78856C33.6276 8.22214 34.0189 8.56054 34.5265 8.80377C35.0447 9.03642 35.658 9.15274 36.3666 9.15274Z" fill="white"/>
<path d="M51.8918 0.269664C52.9281 0.269664 53.8164 0.444153 54.5567 0.793132C55.3075 1.14211 55.8786 1.63385 56.2698 2.26836C56.6611 2.89229 56.8568 3.63255 56.8568 4.48913C56.8568 5.33514 56.6611 6.07539 56.2698 6.7099C55.8786 7.3444 55.3075 7.83615 54.5567 8.18512C53.8164 8.5341 52.9281 8.70859 51.8918 8.70859H46.7998V5.78986H51.6538C52.1191 5.78986 52.4787 5.67354 52.7325 5.44089C52.9969 5.20823 53.129 4.89098 53.129 4.48913C53.129 4.06612 52.9969 3.74358 52.7325 3.52151C52.4787 3.29943 52.1191 3.18839 51.6538 3.18839H47.1171L48.7827 1.50695V12.1666H45.0867V0.269664H51.8918Z" fill="white"/>
<path d="M65.0867 10.4852H63.5481L67.9579 0.269664H71.8284L66.3716 12.1666H62.168L56.7113 0.269664H60.6611L65.0867 10.4852Z" fill="white"/>
<path d="M76.5423 1.87179H80.2383V12.1666H76.5423V1.87179ZM72.1325 0.269664H84.6481V3.55323H72.1325V0.269664Z" fill="white"/>
<path d="M92.2111 12.4363C90.7835 12.4363 89.5303 12.1772 88.4517 11.659C87.3836 11.1409 86.5482 10.4165 85.9454 9.48586C85.3532 8.55525 85.0571 7.46602 85.0571 6.21816C85.0571 4.97029 85.3532 3.88106 85.9454 2.95045C86.5482 2.01984 87.3836 1.29545 88.4517 0.777269C89.5303 0.259089 90.7835 0 92.2111 0C93.6388 0 94.8866 0.259089 95.9547 0.777269C97.0334 1.29545 97.8688 2.01984 98.461 2.95045C99.0638 3.88106 99.3652 4.97029 99.3652 6.21816C99.3652 7.46602 99.0638 8.55525 98.461 9.48586C97.8688 10.4165 97.0334 11.1409 95.9547 11.659C94.8866 12.1772 93.6388 12.4363 92.2111 12.4363ZM92.2111 9.15274C92.9196 9.15274 93.5277 9.03642 94.0353 8.80377C94.5535 8.56054 94.9501 8.22214 95.225 7.78856C95.5 7.3444 95.6375 6.82094 95.6375 6.21816C95.6375 5.61538 95.5 5.0972 95.225 4.66362C94.9501 4.21946 94.5535 3.88106 94.0353 3.64841C93.5277 3.40518 92.9196 3.28357 92.2111 3.28357C91.5026 3.28357 90.8892 3.40518 90.3711 3.64841C89.8634 3.88106 89.4722 4.21946 89.1972 4.66362C88.9223 5.0972 88.7848 5.61538 88.7848 6.21816C88.7848 6.82094 88.9223 7.3444 89.1972 7.78856C89.4722 8.22214 89.8634 8.56054 90.3711 8.80377C90.8892 9.03642 91.5026 9.15274 92.2111 9.15274Z" fill="white"/>
<path d="M107.736 0.269664C108.773 0.269664 109.661 0.444153 110.401 0.793132C111.152 1.14211 111.723 1.63385 112.114 2.26836C112.506 2.89229 112.701 3.63255 112.701 4.48913C112.701 5.33514 112.506 6.07539 112.114 6.7099C111.723 7.3444 111.152 7.83615 110.401 8.18512C109.661 8.5341 108.773 8.70859 107.736 8.70859H102.644V5.78986H107.498C107.964 5.78986 108.323 5.67354 108.577 5.44089C108.841 5.20823 108.974 4.89098 108.974 4.48913C108.974 4.06612 108.841 3.74358 108.577 3.52151C108.323 3.29943 107.964 3.18839 107.498 3.18839H102.962L104.627 1.50695V12.1666H100.931V0.269664H107.736Z" fill="white"/>
<g filter="url(#filter0_d_1068_2364)">
<rect x="19.6523" y="19.3048" width="73.7613" height="19.0352" rx="9.51759" fill="url(#paint0_linear_1068_2364)"/>
</g>
<path d="M32.0195 28.3844H38.1348V30.5544H32.0195V28.3844ZM38.3472 25.0459V27.2159H32.1424L33.361 26.0252V33.392H30.7562V25.0459H38.3472Z" fill="white"/>
<path d="M44.1094 33.5812C43.1032 33.5812 42.22 33.3994 41.4598 33.0359C40.707 32.6724 40.1182 32.1642 39.6934 31.5114C39.276 30.8585 39.0673 30.0944 39.0673 29.219C39.0673 28.3436 39.276 27.5794 39.6934 26.9266C40.1182 26.2737 40.707 25.7655 41.4598 25.402C42.22 25.0385 43.1032 24.8568 44.1094 24.8568C45.1155 24.8568 45.995 25.0385 46.7478 25.402C47.508 25.7655 48.0968 26.2737 48.5142 26.9266C48.939 27.5794 49.1514 28.3436 49.1514 29.219C49.1514 30.0944 48.939 30.8585 48.5142 31.5114C48.0968 32.1642 47.508 32.6724 46.7478 33.0359C45.995 33.3994 45.1155 33.5812 44.1094 33.5812ZM44.1094 31.2777C44.6087 31.2777 45.0373 31.1961 45.395 31.0329C45.7602 30.8622 46.0397 30.6248 46.2335 30.3207C46.4273 30.0091 46.5242 29.6418 46.5242 29.219C46.5242 28.7961 46.4273 28.4326 46.2335 28.1284C46.0397 27.8168 45.7602 27.5794 45.395 27.4162C45.0373 27.2456 44.6087 27.1603 44.1094 27.1603C43.61 27.1603 43.1777 27.2456 42.8125 27.4162C42.4548 27.5794 42.179 27.8168 41.9852 28.1284C41.7914 28.4326 41.6945 28.7961 41.6945 29.219C41.6945 29.6418 41.7914 30.0091 41.9852 30.3207C42.179 30.6248 42.4548 30.8622 42.8125 31.0329C43.1777 31.1961 43.61 31.2777 44.1094 31.2777Z" fill="white"/>
<path d="M52.0551 28.6514H54.9842C55.3121 28.6514 55.5655 28.5773 55.7444 28.4289C55.9307 28.2805 56.0239 28.0654 56.0239 27.7834C56.0239 27.5015 55.9307 27.2864 55.7444 27.138C55.5655 26.9896 55.3121 26.9155 54.9842 26.9155H51.6861L52.86 25.7136V33.392H50.2551V25.0459H55.3755C56.0239 25.0459 56.594 25.1609 57.0859 25.3909C57.5779 25.6209 57.9617 25.9399 58.2375 26.3479C58.5132 26.756 58.6511 27.2345 58.6511 27.7834C58.6511 28.3176 58.5132 28.7924 58.2375 29.2078C57.9617 29.6159 57.5779 29.9349 57.0859 30.1649C56.594 30.3874 56.0239 30.4987 55.3755 30.4987H52.0551V28.6514ZM53.173 29.4861H56.0686L58.953 33.392H55.968L53.173 29.4861Z" fill="white"/>
<path d="M62.334 29.6085C62.334 29.9571 62.3973 30.2539 62.524 30.4987C62.6507 30.7435 62.8408 30.9364 63.0942 31.0774C63.3476 31.2109 63.6643 31.2777 64.0444 31.2777C64.4395 31.2777 64.7637 31.2109 65.0171 31.0774C65.2705 30.9438 65.4568 30.7547 65.5761 30.5098C65.7028 30.2576 65.7661 29.9571 65.7661 29.6085V25.0459H68.371V29.7531C68.371 30.5173 68.1921 31.1887 67.8344 31.7673C67.4766 32.3386 66.9735 32.7837 66.3251 33.1027C65.6767 33.4217 64.9165 33.5812 64.0444 33.5812C63.1873 33.5812 62.4346 33.4217 61.7861 33.1027C61.1377 32.7837 60.6309 32.3386 60.2657 31.7673C59.908 31.1887 59.7291 30.5173 59.7291 29.7531V25.0459H62.334V29.6085Z" fill="white"/>
<path d="M82.3097 25.0459V33.392H79.8278V26.0029L80.3421 26.0586L77.3124 33.392H74.7187L71.6778 26.0808L72.1921 26.0141V33.392H69.7214V25.0459H73.7349L76.4963 32.0233H75.546L78.285 25.0459H82.3097Z" fill="white"/>
<defs>
<filter id="filter0_d_1068_2364" x="5.6523" y="9.30481" width="101.761" height="47.0352" filterUnits="userSpaceOnUse" color-interpolation-filters="sRGB">
<feFlood flood-opacity="0" result="BackgroundImageFix"/>
<feColorMatrix in="SourceAlpha" type="matrix" values="0 0 0 0 0 0 0 0 0 0 0 0 0 0 0 0 0 0 127 0" result="hardAlpha"/>
<feOffset dy="4"/>
<feGaussianBlur stdDeviation="7"/>
<feComposite in2="hardAlpha" operator="out"/>
<feColorMatrix type="matrix" values="0 0 0 0 0.968627 0 0 0 0 0.243137 0 0 0 0 0.682353 0 0 0 0.32 0"/>
<feBlend mode="normal" in2="BackgroundImageFix" result="effect1_dropShadow_1068_2364"/>
<feBlend mode="normal" in="SourceGraphic" in2="effect1_dropShadow_1068_2364" result="shape"/>
</filter>
<linearGradient id="paint0_linear_1068_2364" x1="19.6523" y1="31.1066" x2="96.1321" y2="37.1696" gradientUnits="userSpaceOnUse">
<stop stop-color="#63A5FF"/>
<stop offset="0.333333" stop-color="#ED30FF"/>
<stop offset="0.65625" stop-color="#FF4A64"/>
<stop offset="1" stop-color="#F5FF8C"/>
</linearGradient>
</defs>
</svg>
