<svg width="34" height="34" viewBox="0 0 34 34" fill="none" xmlns="http://www.w3.org/2000/svg">
<path d="M29.7075 1.4165H25.5425C23.7433 1.4165 22.6667 2.49317 22.6667 4.29234V8.45734C22.6667 10.2565 23.7433 11.3332 25.5425 11.3332H29.7075C31.5067 11.3332 32.5833 10.2565 32.5833 8.45734V4.29234C32.5833 2.49317 31.5067 1.4165 29.7075 1.4165ZM30.6142 6.62984C30.09 8.3015 28.2625 9.20817 27.625 9.20817C26.9875 9.20817 25.1742 8.32984 24.6358 6.62984C24.5508 6.37484 24.5083 6.0915 24.5083 5.82234C24.5083 4.9015 24.9758 3.95234 25.9533 3.64067C26.5342 3.4565 27.1575 3.55567 27.5967 3.924C28.05 3.56984 28.6733 3.4565 29.2683 3.64067C30.5717 4.0515 30.9825 5.51067 30.6142 6.62984Z" fill="white"/>
<path d="M25.5425 13.4585C22.78 13.4585 20.5417 11.2202 20.5417 8.45766V4.25016C20.5417 3.471 19.9042 2.8335 19.125 2.8335H9.91668C6.00668 2.8335 2.83334 5.99266 2.83334 9.8885V19.7627C2.83334 23.6727 6.00668 26.846 9.91668 26.846H12.0417C12.4383 26.846 12.9483 27.101 13.175 27.4127L15.3 30.2318C16.235 31.4785 17.765 31.4785 18.7 30.2318L20.825 27.4127C21.0942 27.0585 21.5192 26.846 21.9583 26.846H24.0975C28.0075 26.846 31.1667 23.6868 31.1667 19.7768V14.8752C31.1667 14.096 30.5292 13.4585 29.75 13.4585H25.5425ZM11.3333 17.0002C10.54 17.0002 9.91668 16.3627 9.91668 15.5835C9.91668 14.8043 10.54 14.1668 11.3333 14.1668C12.1125 14.1668 12.75 14.8043 12.75 15.5835C12.75 16.3627 12.1267 17.0002 11.3333 17.0002ZM17 17.0002C16.2067 17.0002 15.5833 16.3627 15.5833 15.5835C15.5833 14.8043 16.2067 14.1668 17 14.1668C17.7792 14.1668 18.4167 14.8043 18.4167 15.5835C18.4167 16.3627 17.7933 17.0002 17 17.0002Z" fill="white"/>
</svg>
