<svg width="34" height="34" viewBox="0 0 34 34" fill="none" xmlns="http://www.w3.org/2000/svg">
<path d="M22.865 4.19315L10.0725 8.44315C1.47335 11.319 1.47335 16.0081 10.0725 18.8698L13.8692 20.1306L15.13 23.9273C17.9917 32.5265 22.695 32.5265 25.5567 23.9273L29.8208 11.149C31.7192 5.41148 28.6025 2.28065 22.865 4.19315ZM23.3183 11.8148L17.935 17.2265C17.7225 17.439 17.4533 17.5381 17.1842 17.5381C16.915 17.5381 16.6458 17.439 16.4333 17.2265C16.0225 16.8156 16.0225 16.1357 16.4333 15.7248L21.8167 10.3131C22.2275 9.90232 22.9075 9.90232 23.3183 10.3131C23.7292 10.724 23.7292 11.404 23.3183 11.8148Z" fill="white"/>
</svg>
