<svg width="18" height="19" viewBox="0 0 18 19" fill="none" xmlns="http://www.w3.org/2000/svg">
<path d="M16.1276 13.8013H14.4165C13.7691 13.8013 13.5744 13.2771 12.4133 12.116C11.4 11.1391 10.9719 11.0171 10.7151 11.0171C10.3609 11.0171 10.2635 11.1144 10.2635 11.6035V13.1422C10.2635 13.5586 10.1287 13.8025 9.04147 13.8025C7.98635 13.7316 6.96316 13.4111 6.0562 12.8672C5.14923 12.3234 4.38444 11.5719 3.82481 10.6746C2.49621 9.02097 1.57177 7.08013 1.125 5.00644C1.125 4.7496 1.22234 4.51738 1.71141 4.51738H3.42136C3.86117 4.51738 4.0195 4.71324 4.1919 5.16477C5.02225 7.60891 6.439 9.73404 7.01368 9.73404C7.23417 9.73404 7.33034 9.6367 7.33034 9.08665V6.5698C7.25763 5.42162 6.64776 5.32427 6.64776 4.9091C6.6556 4.79959 6.70578 4.69744 6.78767 4.62432C6.86955 4.55119 6.9767 4.51283 7.0864 4.51738H9.77448C10.1416 4.51738 10.2635 4.70034 10.2635 5.14014V8.5366C10.2635 8.90369 10.4219 9.02566 10.5321 9.02566C10.7526 9.02566 10.9227 8.90369 11.3261 8.50025C12.1927 7.44348 12.9006 6.26613 13.4278 5.00527C13.4817 4.85382 13.5836 4.72415 13.7181 4.63606C13.8526 4.54797 14.0121 4.50629 14.1725 4.51738H15.8836C16.3962 4.51738 16.5052 4.77423 16.3962 5.14014C15.774 6.53395 15.0041 7.85701 14.0998 9.08665C13.9157 9.36813 13.8418 9.51473 14.0998 9.84429C14.2699 10.1011 14.8692 10.6019 15.2726 11.0781C15.8589 11.6629 16.3458 12.3395 16.714 13.0812C16.8606 13.5574 16.6155 13.8013 16.1276 13.8013Z" fill="white"/>
</svg>
