<svg width="1440" height="2366" viewBox="0 0 1440 2366" fill="none" xmlns="http://www.w3.org/2000/svg">
<g clip-path="url(#clip0_2322_1146)">
<g clip-path="url(#clip1_2322_1146)">
<path d="M1428.48 12.8012L1416.67 0.993164L1404.86 12.8012L1393.06 0.993164L1381.25 12.8012L1369.44 0.993164L1357.63 12.8012L1345.82 0.993164L1334.02 12.8012L1322.21 0.993164L1310.4 12.8012L1298.59 0.993164L1286.78 12.8012L1274.98 0.993164L1263.17 12.8012L1251.36 0.993164L1239.55 12.8012L1227.74 0.993164L1215.94 12.8012L1204.13 0.993164L1192.32 12.8012L1180.51 0.993164L1168.7 12.8012L1156.9 0.993164L1145.09 12.8012L1133.28 0.993164L1121.47 12.8012L1109.66 0.993164L1097.86 12.8012L1086.05 0.993164L1074.24 12.8012L1062.43 0.993164L1050.62 12.8012L1038.82 0.993164L1027.01 12.8012L1015.2 0.993164L1003.39 12.8012L991.584 0.993164L979.776 12.8012L967.968 0.993164L956.16 12.8012L944.352 0.993164L932.544 12.8012L920.736 0.993164L908.928 12.8012L897.12 0.993164L885.312 12.8012L873.504 0.993164L861.696 12.8012L849.888 0.993164L838.08 12.8012L826.272 0.993164L814.464 12.8012L802.656 0.993164L790.848 12.8012L779.04 0.993164L767.232 12.8012L755.424 0.993164L743.616 12.8012L731.808 0.993164L720 12.8012L708.192 0.993164L696.384 12.8012L684.576 0.993164L672.768 12.8012L660.96 0.993164L649.152 12.8012L637.344 0.993164L625.536 12.8012L613.728 0.993164L601.92 12.8012L590.112 0.993164L578.304 12.8012L566.496 0.993164L554.688 12.8012L542.88 0.993164L531.072 12.8012L519.264 0.993164L507.456 12.8012L495.648 0.993164L483.84 12.8012L472.032 0.993164L460.224 12.8012L448.416 0.993164L436.608 12.8012L424.8 0.993164L412.992 12.8012L401.184 0.993164L389.376 12.8012L377.568 0.993164L365.76 12.8012L353.952 0.993164L342.144 12.8012L330.336 0.993164L318.528 12.8012L306.72 0.993164L294.912 12.8012L283.104 0.993164L271.296 12.8012L259.488 0.993164L247.68 12.8012L235.872 0.993164L224.064 12.8012L212.256 0.993164L200.448 12.8012L188.64 0.993164L176.832 12.8012L165.024 0.993164L153.216 12.8012L141.408 0.993164L129.6 12.8012L117.792 0.993164L105.984 12.8012L94.176 0.993164L82.368 12.8012L70.56 0.993164L58.752 12.8012L46.944 0.993164L35.136 12.8012L23.328 0.993164L11.52 12.8012L-0.288025 0.993164V15.3932H1440.29V0.993164" fill="#1D1A32"/>
</g>
</g>
<rect y="15" width="1440" height="2351" fill="url(#paint0_linear_2322_1146)"/>
<defs>
<linearGradient id="paint0_linear_2322_1146" x1="720" y1="15" x2="720" y2="2366" gradientUnits="userSpaceOnUse">
<stop stop-color="#1D1A32"/>
<stop offset="1" stop-color="#1D1A32" stop-opacity="0"/>
</linearGradient>
<clipPath id="clip0_2322_1146">
<rect width="1440" height="14.4" fill="white" transform="translate(0 0.993164)"/>
</clipPath>
<clipPath id="clip1_2322_1146">
<rect width="1440" height="14.4" fill="white" transform="translate(0 0.993164)"/>
</clipPath>
</defs>
</svg>
